<svg xmlns="http://www.w3.org/2000/svg" width="34" height="34" viewBox="0 0 34 34">
  <g fill="none">
    <path fill="#FFF" d="M8.68509213 18.3768844H23.4924623l5.6951424 11.3902848H2.98994975z"/>
    <path fill="#444B54" d="M27.7922948 30.6214405h-1.4522613c-.4840871 0-.8542714-.3701842-.8542714-.8542713 0-.4840871.3701843-.8542714.8542714-.8542714h1.4522613l-1.3953099-2.762144c-.19933-.4271357-.0284757-.9396985.3701843-1.1390285.4271357-.19933.9396985-.0284757 1.1390285.3701842l1.3953098 2.7621441c.2562814.5410385.2278057 1.1675042-.0854271 1.6515913-.2847571.5125628-.8257956.8257956-1.4237856.8257956ZM4.27135678 27.8308208c-.14237856 0-.2562814-.0284757-.39865996-.0854272-.42713568-.2278057-.59798995-.7403685-.37018426-1.1390284l.62646566-1.2244557c.2278057-.4271356.74036851-.5979899 1.13902848-.3701842.42713568.2278057.59798995.7403685.37018425 1.1390285l-.62646566 1.2244556c-.11390284.2847571-.42713568.4556114-.74036851.4556114Z"/>
    <path fill="#FFF" d="M6.54941374 29.7671692H.85427136c0-1.5661642 1.28140703-2.8475712 2.84757119-2.8475712 1.56616415 0 2.84757119 1.281407 2.84757119 2.8475712Z"/>
    <path fill="#444B54" d="M.85427136 30.6214405C.37018426 30.6214405 0 30.2512563 0 29.7671692c0-2.0502513 1.65159129-3.7018426 3.70184255-3.7018426.2562814 0 .51256281.0284757.74036851.0854272.45561139.0854271.76884422.5410385.65494137.9966499-.08542714.4556114-.54103853.7688442-.99664992.6549414-.14237856-.0284758-.2562814-.0284758-.39865996-.0284758-1.11055277 0-1.99329984.8827471-1.99329984 1.9932999 0 .4840871-.37018425.8542713-.85427135.8542713ZM21.8978224 19.2311558H8.05862647c-.48408711 0-.85427136-.3701843-.85427136-.8542714s.37018425-.8542713.85427136-.8542713H21.8978224c.4840871 0 .8542714.3701842.8542714.8542713 0 .4840871-.39866.8542714-.8542714.8542714Z"/>
    <path fill="#FFF" d="M16.0887772 3.85427136c-3.1453403 0-5.6951424 2.54980209-5.6951424 5.69514238 0 3.14534028 2.5498021 5.69514236 5.6951424 5.69514236s5.6951424-2.54980208 5.6951424-5.69514236c0-3.14534029-2.5498021-5.69514238-5.6951424-5.69514238Z"/>
    <path fill="#444B54" d="M16.0887772 16.0988275c-3.6164154 0-6.54941372-2.9329984-6.54941372-6.54941376C9.53936348 5.93299832 12.4723618 3 16.0887772 3c3.6164154 0 6.5494138 2.93299832 6.5494138 6.54941374 0 3.61641536-2.9329984 6.54941376-6.5494138 6.54941376Zm0-11.39028479c-2.6767169 0-4.840871 2.16415411-4.840871 4.84087103 0 2.67671691 2.1641541 4.84087106 4.840871 4.84087106 2.6767169 0 4.840871-2.16415415 4.840871-4.84087106 0-2.67671692-2.1641541-4.84087103-4.840871-4.84087103Z"/>
    <path fill="#C1D2E5" d="M8.40033501 29.7671692 6.57788945 19.3735343c-.08542714-.5125628.31323283-.9966499.85427135-.9966499h17.3417085c.5410386 0 .9396985.4840871.8542714.9966499l-1.8509213 10.3936349H8.40033501Z"/>
    <path fill="#FFF" d="M16.0887772 22.6482412c-.7863351 0-1.4237856.6374505-1.4237856 1.4237856s.6374505 1.4237856 1.4237856 1.4237856 1.4237856-.6374505 1.4237856-1.4237856-.6374505-1.4237856-1.4237856-1.4237856Z"/>
    <path fill="#444B54" d="M8.40033501 30.6214405c-.39865997 0-.76884422-.2847571-.85427136-.7118928L5.7520938 19.5159129c-.08542713-.5125628.05695143-.9966499.37018426-1.3953099s.79731993-.5979899 1.30988274-.5979899h17.3417085c.5125629 0 .99665.2278057 1.3098828.5979899.3132328.39866.4556114.8827471.3701842 1.3953099l-1.8224455 10.3936348c-.0854271.4556114-.5125628.7688443-.9966499.6834171-.4556114-.0854271-.7688443-.5125628-.6834171-.9966499l1.7939698-10.3651591H7.4321608l1.82244557 10.3936348c.08542713.4556114-.2278057.9112228-.68341709.9966499h-.17085427Z"/>
    <path fill="#444B54" d="M26.3400335 30.6214405H5.69514238c-.4840871 0-.85427136-.3701842-.85427136-.8542713 0-.4840871.37018426-.8542714.85427136-.8542714H26.3400335c.4840871 0 .8542714.3701843.8542714.8542714s-.3701843.8542713-.8542714.8542713Zm6.8341709 0c-.2278057 0-.4556114-.0854271-.59799-.2562814-.0284757-.0284757-.0854271-.0854271-.1139028-.1423785-.0284758-.0569515-.0569515-.0854272-.0854272-.1423786-.0284757-.0569514-.0284757-.1139028-.0569514-.1708543 0-.0569514-.0284757-.1139028-.0284757-.1708542 0-.2278057.0854271-.4556114.2562814-.59799.3132328-.3132328.8827471-.3132328 1.1959799 0 .1708543.1708543.2562814.3701843.2562814.59799s-.0854271.4556114-.2562814.5979899c-.1139029.19933-.3417085.2847571-.5695142.2847571Z"/>
  </g>
</svg>
