<svg xmlns="http://www.w3.org/2000/svg" width="34" height="34" viewBox="0 0 34 34">
  <g fill="none">
    <path fill="#FFF" d="M31.0335935 20.246499H28.067187c1.1865626 0 2.1573865-.9708239 2.1573865-2.1573865 0-.2966407.2966407-1.8877133-2.1573865-2.1573866H12.4261344s7.0924083-6.44519236 4.4765771-8.46774226c-.6741833-.53934664-1.6180399-.59328131-2.3461579-.080902L.8301816 17.0104192v13.483666s4.93502177 2.6967332 10.7869328 2.6967332h11.3532468c1.1865626 0 2.1304192-.9438566 2.1304192-2.1304192v-.0539347c0-1.1865626-.9438566-2.1304192-2.1304192-2.1304192h5.0698584c1.21353 0 2.1843539-.970824 2.1843539-2.1843539 0-1.1865626-.9708239-2.1304193-2.1573865-2.1304193h2.9664065c1.1865626 0 2.1573865-.9708239 2.1573865-2.1573865 0-1.1865626-.9708239-2.1573866-2.1573865-2.1573866Z"/>
    <path fill="#444B54" d="M31.0335935 5.95381305c-1.6450073 0-2.9664065-1.32139927-2.9664065-2.96640653C28.067187 1.34239927 29.3885862.021 31.0335935.021 32.6786007.021 34 1.34239927 34 2.98740652c0 1.64500726-1.3213993 2.96640653-2.9664065 2.96640653Zm0-4.31477313c-.7550853 0-1.3483666.59328131-1.3483666 1.3483666 0 .7550853.5932813 1.3483666 1.3483666 1.3483666.7550853 0 1.3483666-.5932813 1.3483666-1.3483666 0-.75508529-.5932813-1.3483666-1.3483666-1.3483666Zm0 17.79843918h-.323608c.2157386-.40451.323608-.8629547.323608-1.3483666 0-.7820527-.323608-1.5101706-.80902-2.0225499v-.1078694c0-2.5079619-1.8877132-4.5574791-4.3417404-4.8271524.1887713-.5123793.2966406-1.0786933.2966406-1.64500726 0-2.66976587-2.1843539-4.85411976-4.8541198-4.85411976-1.6719745 0-3.1551778.86295462-4.0181324 2.13041923-.9438566-.6741833-2.2382886-.72811797-3.2091125-.02696734l-2.1304193 1.5101706c-.8899219-1.24049728-2.31919052-2.0225499-3.93723044-2.0225499-2.66976587 0-4.85411976 2.18435389-4.85411976 4.85411973 0 .9977913.32360798 1.9416479.83598729 2.7237006L.37173696 16.3362359c-.37754264.2696733-.45844464.7550853-.18877132 1.1326279.26967332.3775427.7550853.4584447 1.13262795.1887713L15.0419656 8.03029761c.5123793-.35057531 1.2135299-.24270599 1.5910726.24270599.323608.43147731.323608 1.05172595-.0269674 1.48320326l-4.8001851 5.66313974c-.2157386.242706-.2427059.566314-.1078693.8629546.1348367.2966407.4314773.4584447.728118.4584447H28.067187c.7281179 0 1.3483666.5932813 1.3483666 1.3483666 0 .7550853-.5932813 1.3483666-1.3483666 1.3483666H17.5499275c-.4584447 0-.80902.3505753-.80902.8090199 0 .4584447.3505753.80902.80902.80902h13.483666c.7550853 0 1.3483666.5932813 1.3483666 1.3483666 0 .7550853-.5932813 1.3483666-1.3483666 1.3483666H16.4712342c-.4584447 0-.80902.3505753-.80902.8090199 0 .4584447.3505753.80902.80902.80902H28.067187c.7550853 0 1.3483666.5932813 1.3483666 1.3213993 0 .7550853-.6202487 1.3753339-1.375334 1.3753339H14.8531943c-.4584447 0-.80902.3505753-.80902.80902 0 .4584446.3505753.8090199.80902.8090199h8.1171669c.728118 0 1.3213993.5932813 1.3213993 1.3213993v.0539347c0 .3505753-.1348367.6741833-.3775427.9438566-.242706.242706-.5932813.3775426-.9438566.3775426H11.6171144c-5.55527038 0-10.35545548-2.5618965-10.40939014-2.5888638-.40450998-.2157387-.88992196-.080902-1.10566061.3236079-.21573866.40451-.080902.889922.32360798 1.1056607.21573865.1078693 5.20469508 2.7776352 11.19144277 2.7776352h11.3532468c.7820526 0 1.5101706-.2966407 2.0764846-.8629547.5663139-.5663139.8629546-1.2944319.8629546-2.0764845v-.0539347c0-.4584446-.1078693-.9168893-.323608-1.3213993h2.4540272c1.6450073 0 2.9933739-1.3483666 2.9933739-2.9933738 0-.485412-.1078694-.9438566-.323608-1.3213993h.323608C32.6786007 25.3702921 34 24.0488928 34 22.4038856c0-1.6450073-1.3213993-2.9664065-2.9664065-2.9664065Z"/>
  </g>
</svg>
