<svg xmlns="http://www.w3.org/2000/svg" width="34" height="34" viewBox="0 0 34 34">
  <g fill="none">
    <path fill="#FFF" d="M3.77777778 31.1909365c0-1.484127 1.21428571-2.6984127 2.6984127-2.6984127 0-1.484127 1.21428571-2.6984127 2.69841269-2.6984127v5.3968254H3.77777778ZM30.8428571 20.1814127 18.6190476 7.9845873 6.3952381 20.1814127 4.12857143 17.914746 18.6190476 3.39728571 33.1095238 17.914746l-2.2666667 2.2666667Z"/>
    <path fill="#FFF" d="M28.0634921 29.3020476V17.267127l-9.4444445-9.2825397-9.44444443 9.4444444v13.7619048H29.6825397v-.2698413c0-.8904762-.7285714-1.6190476-1.6190476-1.6190476Z"/>
    <path fill="#71C2FF" d="M15.6507937 19.3179206h5.9365079v11.8730159h-5.9365079z"/>
    <path fill="#71C2FF" d="M21.5873016 32.0004603h-5.9365079c-.4587302 0-.8095239-.3507936-.8095239-.8095238V19.3179206c0-.4587301.3507937-.8095238.8095239-.8095238h5.9365079c.4587301 0 .8095238.3507937.8095238.8095238v11.8730159c0 .4587302-.3507937.8095238-.8095238.8095238Zm-5.1269841-1.6190476h4.3174603V20.1274444h-4.3174603v10.2539683Z"/>
    <path fill="#444B54" d="M33.7031746 17.3210952 19.1857143 2.83061905c-.2968254-.2968254-.836508-.2968254-1.1333333 0L3.53492063 17.3210952c-.32380952.3238096-.32380952.836508 0 1.1333334l2.2936508 2.2936508c.16190476.1619047.35079365.2428571.56666667.2428571.21587301 0 .43174603-.0809524.56666666-.2428571L18.6190476 9.11792063l8.6349207 8.63492067v10.8746031c-.7825397.2698413-1.3761905.9444445-1.5650794 1.7539683H9.98412698v-7.2857143c0-.4587301-.35079365-.8095238-.80952381-.8095238-.45873015 0-.8095238.3507937-.8095238.8095238v1.9968254c-1.32222223.3238095-2.34761905 1.3492064-2.61746032 2.6714286-1.32222222.2698413-2.37460318 1.3222222-2.67142857 2.6174603H.80952381C.35079365 30.3814127 0 30.7322063 0 31.1909365c0 .4587302.35079365.8095238.80952381.8095238H26.4444444c.4587302 0 .8095239-.3507936.8095239-.8095238v-.2698413c0-.4587301.3507936-.8095238.8095238-.8095238.4587301 0 .8095238.3507937.8095238.8095238v.2698413c0 .4587302.3507936.8095238.8095238.8095238h.8095238c.4587302 0 .8095238-.3507936.8095238-.8095238 0-.4587302-.3507936-.8095238-.8095238-.8095238h-.0539683c-.1888889-.8095238-.7825396-1.484127-1.5650793-1.7539683v-9.2555555l1.3761904 1.3761905c.1619048.1619047.3507937.2428571.5666667.2428571.215873 0 .431746-.0809524.5666667-.2428571l2.2936508-2.2936508C34 18.1576032 34 17.6449048 33.7031746 17.3210952ZM6.47619048 29.3020476c.45873015 0 .80952381-.3507936.80952381-.8095238 0-.7555555.43174603-1.4031746 1.07936508-1.7v3.5888889H4.77619048c.29682539-.647619.94444444-1.0793651 1.7-1.0793651ZM30.8428571 19.0480794 19.1857143 7.41792063c-.1619048-.16190476-.3507937-.24285714-.5666667-.24285714-.215873 0-.4047619.08095238-.5666666.24285714L6.3952381 19.0480794 5.26190476 17.914746 18.6190476 4.55760317 31.9761905 17.914746l-1.1333334 1.1333334Zm2.3476191 11.3333333c-.4470877 0-.8095238.3624362-.8095238.8095238 0 .4470877.3624361.8095238.8095238.8095238.4470876 0 .8095238-.3624361.8095238-.8095238 0-.4470876-.3624362-.8095238-.8095238-.8095238Z"/>
  </g>
</svg>
