<svg xmlns="http://www.w3.org/2000/svg" width="34" height="34" viewBox="0 0 34 34">
  <g fill="none" fill-rule="evenodd">
    <g fill-rule="nonzero">
      <path fill="#93AEC5" d="M13.965 29.824H9.789v-5.965h4.176z"/>
      <path fill="#FFF" d="M16.64912281 18.7894737h3.57894739v12.5263158c0 .9842105-.8052632 1.7894737-1.7894737 1.7894737-.98421054 0-1.78947369-.8052632-1.78947369-1.7894737 0 .9842105-.80526316 1.7894737-1.78947369 1.7894737-.98421052 0-1.78947368-.8052632-1.78947368-1.7894737V18.7894737h3.57894737Z"/>
      <path fill="#FFF" d="M14.26315789 9.84210526h4.77192981c1.6403509 0 2.9824562 1.34210524 2.9824562 2.98245614v8.9473684H9.78947368l1.1631579-9.3052631c.17894737-1.4912281 1.46140351-2.62456144 2.95263158-2.62456144h.35789473Z"/>
      <path fill="#C1D2E5" d="M16.05263158 16.4035088c-.17894737-.1789474-.26842105-.4473684-.23859649-.7157895l.50701754-4.0561404c.02982456-.1789473.17894737-.2982456.32807018-.2982456.17894737 0 .32807017.1192983.32807017.2982456l.50701755 4.0561404c.02982456.2684211-.05964913.5070175-.23859649.7157895-.32807018.3280701-.86491229.3280701-1.19298246 0Zm4.17543862 5.368421V23.8c-.208772.0298246-.3877193.0596491-.5964913.0596491h-6.56140346v-2.0877193h7.15789476Z"/>
      <path fill="#444B54" d="M9.78947368 22.6666667h-.11929824c-.47719298-.0596492-.83508772-.5070176-.7754386-.9842106l1.1631579-9.3052631c.23859649-1.9684211 1.90877193-3.42982458 3.84736842-3.42982458h.35789473c.50701755 0 .89473685.3877193.89473685.89473684s-.3877193.89473684-.89473685.89473684h-.35789473c-1.04385965 0-1.93859649.7754386-2.05789474 1.8192983l-1.16315789 9.3350877c-.05964913.4473684-.44736842.7754386-.89473685.7754386ZM14.85964912 34c-1.49122807 0-2.68421052-1.1929825-2.68421052-2.6842105v-9.5438597c0-.5070175.38771929-.8947368.89473684-.8947368.50701754 0 .89473684.3877193.89473684.8947368v9.5438597c0 .5070175.3877193.8947368.89473684.8947368.50701755 0 .89473684-.3877193.89473684-.8947368v-9.5438597c0-.5070175.3877193-.8947368.89473685-.8947368.50701754 0 .89473684.3877193.89473684.8947368v9.5438597c0 1.491228-1.19298246 2.6842105-2.68421053 2.6842105Zm-5.07017544-4.1754386c-.50701754 0-.89473684-.3877193-.89473684-.8947368V24.754386c0-.5070176.3877193-.8947369.89473684-.8947369.50701755 0 .89473685.3877193.89473685.8947369v4.1754386c0 .5070175-.3877193.8947368-.89473685.8947368Zm10.43859652-5.1298246c-.5070176 0-.8947369-.3877193-.8947369-.8947368v-2.0280702c0-.5070175.3877193-.8947368.8947369-.8947368h.8947368v-6.2631579c0-1.4614035-.268421-3.877193-2.0877193-3.877193-.5070175 0-.8947368-.3877193-.8947368-.89473684s.3877193-.89473684.8947368-.89473684c3.6087719 0 3.877193 4.32456138 3.877193 5.66666668v7.1578947c0 .5070176-.3877193.8947369-.8947368.8947369h-.8947369V23.8c0 .5070175-.3877193.8947368-.8947368.8947368Z"/>
      <path fill="#FFF" d="M16.64912281.89473684c-1.64716505 0-2.98245614 1.3352911-2.98245614 2.98245614 0 1.64716505 1.33529109 2.98245614 2.98245614 2.98245614 1.64716509 0 2.98245609-1.33529109 2.98245609-2.98245614 0-1.64716504-1.335291-2.98245614-2.98245609-2.98245614Z"/>
      <path fill="#444B54" d="M16.64912281 7.75438596c-2.14736842 0-3.87719299-1.72982456-3.87719299-3.87719298S14.50175439 0 16.64912281 0c2.14736839 0 3.87719299 1.72982456 3.87719299 3.87719298s-1.7298246 3.87719298-3.87719299 3.87719298Zm0-5.96491228c-1.1631579 0-2.0877193.92456141-2.0877193 2.0877193 0 1.1631579.9245614 2.0877193 2.0877193 2.0877193 1.16315789 0 2.08771929-.9245614 2.08771929-2.0877193 0-1.16315789-.9245614-2.0877193-2.08771929-2.0877193ZM18.4385965 34c-1.49122808 0-2.68421054-1.1929825-2.68421054-2.6842105 0-.5070176.3877193-.8947369.89473685-.8947369.50701754 0 .89473684.3877193.89473684.8947369 0 .5070175.3877193.8947368.89473685.8947368.5070175 0 .8947368-.3877193.8947368-.8947368v-7.754386c0-.5070175.3877193-.8947368.8947369-.8947368.5070175 0 .8947368.3877193.8947368.8947368v7.754386C21.122807 32.8070175 19.9298246 34 18.4385965 34Z"/>
      <path fill="#444B54" d="M24.4035088 34H8.89473684C8.3877193 34 8 33.6122807 8 33.1052632c0-.5070176.3877193-.8947369.89473684-.8947369H24.4035088c.5070175 0 .8947368.3877193.8947368.8947369 0 .5070175-.3877193.8947368-.8947368.8947368Zm2.9824561 0c-.2385965 0-.477193-.0894737-.6263158-.2684211-.1789473-.1789473-.268421-.3877193-.268421-.6263157 0-.2385965.0894737-.477193.268421-.6263158l.1192983-.1192983c.0596491-.0298245.0894737-.0596491.1491228-.0894737.0596491-.0298245.1192982-.0298245.1789473-.0596491.2982457-.0596491.5964913.0298246.8052632.2385965.1789474.1789474.2684211.3877193.2684211.6263158s-.0894737.477193-.2684211.6263158C27.8631579 33.9105263 27.6245614 34 27.3859649 34Z"/>
    </g>
    <path stroke="#F37778" stroke-linecap="round" stroke-width="3" d="m3.5 30.5 27-27"/>
  </g>
</svg>
