<svg xmlns="http://www.w3.org/2000/svg" width="34" height="34" viewBox="0 0 34 34">
  <g fill="none" transform="translate(0 4.37)">
    <circle cx="30.763" cy="15.623" r="2.428" fill="#FFF"/>
    <circle cx="3.248" cy="4.833" r="2.428" fill="#FFF"/>
    <path fill="#FFF" d="m10.968264 4.83298047 2.6112346-2.61123453C15.4489051.35233941 18.4701682.32266629 20.374643 2.15160948l2.7946683 2.68137099h10.0106316V15.6232058h-2.4844494c-1.5699778 1.5699778-8.9747699 8.9747699-9.5655348 9.5655347-.8578229.857823-2.2578546.8416376-3.0967946-.048556-.8092669-.8605204-.7256427-2.2308791.1079022-3.0671215L17 23.2114318c-.7795938.7795937-2.0285624.9198667-2.9052682.2508727-1.0547445-.8038718-1.1302761-2.3198984-.2238971-3.2262774l-.6878769.6878769c-.8362425.8362425-2.2092986.9198667-3.0671216.1105998-.89019355-.83894-.90637888-2.2389718-.048556-3.0967947l.571882-.5718819s.1079022-.1079023.1618534-.1618534c.0188828-.0188829.0296731-.0296731.0296731-.0296731-.84163761.8416376-2.20929867.8443351-3.05633135-.0053951-.4262139-.4262139-.6366233-.9873056-.62853063-1.5483974H.8092669L.82005713 4.83298047H10.968264Z"/>
    <path fill="#444B54" d="M30.7629324 12.3861382c-1.7857823 0-3.2370676 1.4512853-3.2370676 3.2370676 0 .5826722.1564583 1.1275785.4262139 1.5996509-2.7757855 2.7757855-7.2429387 7.2429388-7.3940019 7.3940019-.5260235.5260235-1.3811488.5260235-1.9044748 0-.5260235-.5260235-.5260235-1.3784513 0-1.9044748l1.2112028-1.2112028c.3156141-.315614.3156141-.8281497 0-1.1437638-.3156141-.3156141-.8281498-.3156141-1.1437639 0l-2.3441764 2.3441764c-.2589654.2589654-.6015551.3992383-.9657252.3992383-.3641701 0-.7067597-.1429704-.9657251-.3992383-.5206284-.5206284-.5206284-1.3649635.0107902-1.8963821l.0026975-.0026975 1.5861632-1.5861632c.315614-.3156141.315614-.8281498 0-1.1437639-.3156141-.315614-.8281498-.315614-1.1437639 0l-1.5915583 1.5915583-.7634084.7634084c-.2535703.2535703-.5934624.3938432-.9549349.3938432-.358775 0-.6986671-.1402729-.954935-.3938432-.5260235-.5260235-.5260235-1.3811488 0-1.9071723l.571882-.5718819.0026975-.0026976 2.1607426-2.1607426c.3156141-.3156141.3156141-.8281498 0-1.1437639-.3156141-.3156141-.8281498-.3156141-1.1437639 0l-1.9719136 1.9719137c-.2535703.2535703-.59076486.3938432-.95223741.3938432h-.00269756c-.36147255 0-.70136465-.1429705-.96033005-.3992383-.2535703-.2535703-.39384323-.5907649-.39384323-.9468423 0-.358775.14027293-.693272.39384323-.9468423l3.87638842-3.8763884c.3156141-.3156141.3156141-.8281498 0-1.14376392-.3156141-.31561409-.8281498-.31561409-1.1437639 0L7.2024754 13.5568776c-.55839416.5583942-.86591558 1.3029198-.86591558 2.0933038 0 .790384.30752142 1.532212.86591558 2.0933037.43430657.4343065.97381784.71755 1.56188512.8254522-.09171691.285941-.13757537.5880673-.13757537.8982863 0 .7930815.30752142 1.5376071.86861314 2.0986988.56109171.5610917 1.30561731.8686131 2.09869881.8686131.3075214 0 .6069502-.0458584.8928912-.1348778.1052047.5664868.3749603 1.1086957.8119644 1.5456998.5637893.5637893 1.3137099.8740082 2.1094891.8740082.4666772 0 .9198667-.1079022 1.3245001-.3102189.1267852.4963503.3857506.9657251.7741987 1.3541732.577277.5772771 1.3379879.8659156 2.0960013.8659156.7580133 0 1.5187242-.2886385 2.0960012-.8659156.1510632-.1510631 4.6020311-4.6020311 7.3778166-7.3778165.4909552.2994287 1.0655347.4774675 1.6832751.4774675 1.7857823 0 3.2370676-1.4512854 3.2370676-3.2370676 0-1.7857823-1.4485877-3.2397652-3.23437-3.2397652Zm0 4.8556014c-.8928911 0-1.6185338-.7256427-1.6185338-1.6185338s.7256427-1.6185338 1.6185338-1.6185338 1.6185338.7256427 1.6185338 1.6185338-.7256427 1.6185338-1.6185338 1.6185338Zm2.4278007-11.59949223h-5.7565852c-.4477944 0-.8092669-.36147255-.8092669-.8092669s.3614725-.8092669.8092669-.8092669h5.7565852c.4477944 0 .8092669.36147255.8092669.8092669s-.3614725.8092669-.8092669.8092669Z"/>
    <path fill="#71C2FF" d="m24.2159632 4.71698555-3.2802285-3.15074579c-2.2066011-2.12027928-5.7646779-2.0825135-7.9281181.08092669l-2.3765471 2.37654712H6.37972072c-.36147254-1.39463662-1.62662646-2.42780069-3.1318629-2.42780069-1.78578229 0-3.2370676 1.4512853-3.2370676 3.23706759 0 1.78578229 1.45128531 3.2370676 3.2370676 3.2370676 1.50523644 0 2.77039036-1.03316407 3.1318629-2.4278007H10.968264c.2158045 0 .4208188-.0863218.571882-.23738495l2.6112345-2.61123453c1.5456998-1.54569978 4.0867979-1.57267534 5.6648683-.05664869l3.2802285 3.14804824c.5368137.51523326.5529991 1.37035862.0377658 1.90717233-.2481752.25896541-.5853697.407331-.9441447.41542367-.3722628.00539512-.7013647-.12678514-.9630276-.37496033l-2.8998731-2.78657569c-.3210092-.31021897-.8335449-.29942875-1.1437639.02427801-.3102189.32370676-.2994287.83354491.024278 1.14376388l2.8998731 2.78387814c.5556966.53411615 1.2840368.82545224 2.0528404.82545224h.0620438c.7930815-.01618534 1.532212-.3398921 2.0798159-.91177404 1.1329736-1.17883212 1.0952079-3.06172644-.0863218-4.1947001ZM3.24785782 6.45151427c-.89289114 0-1.6185338-.72564265-1.6185338-1.6185338 0-.89289114.72564266-1.6185338 1.6185338-1.6185338.89289115 0 1.6185338.72564266 1.6185338 1.6185338 0 .89289115-.72564265 1.6185338-1.6185338 1.6185338Zm.25896541 9.98095843H.8092669C.36147255 16.4324727 0 16.0710001 0 15.6232058c0-.4477944.36147255-.8092669.8092669-.8092669h2.69755633c.44779435 0 .8092669.3614725.8092669.8092669 0 .4477943-.3641701.8092669-.8092669.8092669Z"/>
  </g>
</svg>
