<svg xmlns="http://www.w3.org/2000/svg" width="34" height="34" viewBox="0 0 34 34">
  <g fill="none">
    <path fill="#E8E8F9" d="m7.83829936 15.2492771 1.32199341 1.0521988c.64750698.5126097 1.02521938 1.295014 1.02521938 2.1043977v13.3818109c0 .7014659.5126097 1.3219934 1.21407559 1.4029318.80938372.0809383 1.48387016-.5665686 1.48387016-1.3489729V18.432853c0-.8363631.3777124-1.6187674 1.05219884-2.1313771l1.24105504-.944281c.72844536-.5665686 1.13313722-1.4568907 1.02521942-2.3741923l-.1079179-3.26451431H6.9209978l-.10791783 3.23753491c-.05395891.8903221.32375349 1.7266853 1.02521939 2.2932539ZM24.9972343 31.8416434c0 .7554248.5935481 1.3489729 1.3489729 1.3489729.7554248 0 1.3489728-.5935481 1.3489728-1.3489729V2.3530964c0-.86334264-.7014658-1.53782908-1.537829-1.53782908-.6744865 0-1.295014.45865078-1.4838702 1.10615776L19.9790552 17.6774282c-.2158356.7014659.1079178 1.4838702.7824043 1.8076237l4.2357748 2.185336v10.1712555Z"/>
    <path fill="#444B54" d="M26.3462072 34c-1.1870962 0-2.1583566-.9712605-2.1583566-2.1583566V25.744286c0-.4586508.3507329-.8093837.8093837-.8093837s.8093837.3507329.8093837.8093837v6.0973574c0 .296774.2428151.5395892.5395892.5395892.296774 0 .5395891-.2428152.5395891-.5395892V2.3530964c0-.40469186-.3237535-.72844535-.7284453-.72844535-.3237535 0-.6205276.21583566-.7014659.51260969L20.73448 17.8932639c-.1079178.3507329.0539589.7014659.3777124.8633426l4.2627543 2.2123155c.4046919.2158357.5395892.7014659.350733 1.0791783-.2158357.4046919-.7014659.5395892-1.0791783.350733l-4.2627543-2.2123155c-.99824-.5126097-1.5108496-1.6727264-1.1870962-2.7788841l4.6944256-15.72902374C24.1878506.70734949 25.1051521.0058836 26.157351.0058836c1.2950139 0 2.3472128 1.05219884 2.3472128 2.3472128v29.488547C28.5045638 33.0287395 27.5333033 34 26.3462072 34Zm-14.83870163 0c-1.18709613 0-2.1583566-.9712605-2.1583566-2.1583566V20.0786c0-.4586508.35073295-.8093838.80938373-.8093838.45865077 0 .80938372.350733.80938372.8093838v11.7630434c0 .296774.24281512.5395892.53958915.5395892.29677403 0 .53958915-.2428152.53958915-.5395892V18.432853c0-1.0791783.51260969-2.1313771 1.37595233-2.7788841l1.24105504-.944281c.51260969-.4046918.80938373-1.0521988.72844535-1.7266853L13.93565674.92318515c-.05395891-.43167131.26979458-.83636318.7014659-.8903221.43167131-.0539589.83636318.26979458.89032209.7014659L16.957356 12.7941464c.1348973 1.2140756-.3777124 2.4551307-1.3489729 3.183576l-1.24105504.944281c-.43167132.350733-.70146589.9173016-.70146589 1.5108496v13.4087904c0 1.1870961-.97126047 2.1583566-2.1583566 2.1583566ZM9.18727223 17.1378391c-.1888562 0-.35073295-.0539589-.51260969-.1888562l-1.34897288-1.0791783c-.97126047-.7554248-1.4568907-1.942521-1.29501395-3.1565965L7.46058695.7073495c.05395892-.43167132.45865078-.75542481.91730155-.7014659.43167132.05395892.75542481.45865078.7014659.91730155L7.64944315 12.9290437c-.08093837.647507.18885621 1.295014.7014659 1.6997058l1.34897287 1.0791783c.35073295.2697946.40469186.7824043.13489729 1.1331373-.16187675.1888562-.40469186.296774-.64750698.296774Z"/>
    <path fill="#444B54" d="M11.50750557 12.1466395c-.45865078 0-.80938372-.350733-.80938372-.8093838V.81526732c0-.45865077.35073294-.80938372.80938372-.80938372.45865078 0 .80938372.35073295.80938372.80938372V11.3372557c0 .4586508-.35073294.8093838-.80938372.8093838Z"/>
  </g>
</svg>
