<svg xmlns="http://www.w3.org/2000/svg" width="34" height="34" viewBox="0 0 34 34">
  <path fill="#444B54" d="M11.4558391 5.00058494c-.120657.00281454-.2424221.0163474-.3638315.0401074-1.54816466.30335134-3.1387971.83476839-4.7512927 1.48110852-.83020926.33296213-1.53634799.90910334-2.02972061 1.65443008C.59673425 13.78673443-.44922699 19.5984507.16417679 25.422408c.02328345.2236661.14788214.4242909.33804798.5443142 2.32163149 1.4642997 4.71748109 2.7428129 7.25370762 3.6196919.95748611.3312263 2.02500306-.0526356 2.57976441-.9024164l1.210384-1.8549669c.5216091.1449528 1.0567632.2673685 1.5985655.3781554 1.2356472.3043908 2.5197884.4726948 3.8402824.4726948 1.3575868 0 2.6774567-.1758411 3.9448487-.4970456.4973448-.1051178.988513-.2211273 1.4696491-.3552369l1.2662479 1.88648c.559059.8337782 1.6148351 1.2044537 2.5611429.8780648 2.5422323-.8776211 4.9440985-2.1581717 7.2708969-3.6254211.1901657-.1200234.3147643-.3206482.3380476-.5443142.6134042-5.8232474-.4318551-11.63496071-4.1453852-17.24474474a.74300914.74300914 0 0 0-.0014323-.00286463l-.0028647-.00429768v.00286463c-.4935656-.74563403-1.201196-1.32093316-2.0311525-1.65299711-1.6116398-.64555027-3.2004285-1.17633748-4.7469965-1.47967614-.9716985-.19037821-1.953732.30870995-2.4064433 1.1917624l-.1346457.26356284c-.9290437-.10628423-1.9320625-.19257648-3.3675883-.15756478-1.43445-.034919-2.4370243.05093432-3.366156.15756478l-.1346464-.26356284a.74329122.74329122 0 0 0-.0014323 0c-.396312-.77221627-1.1965823-1.2515717-2.0411795-1.23186979Zm.1589972 1.47108174c.2355033.03139908.448344.17998076.5772596.4311544l.3495077.68039329c.142541.27720532.4447182.43403879.7534453.39104695.9457724-.13037881 2.0776189-.21069113 3.6870151-.17045649a.73348337.73348337 0 0 0 .0358101 0c1.6091785-.04022657 2.7419087.04067393 3.6884475.17045649.3082393.04234605.6096557-.11439036.7520138-.39104695l.3495068-.68039329c.1706729-.33291189.4944333-.48593551.8179047-.42256 1.4148699.277508 2.9238846.77620871 4.4834329 1.40089389.5568259.22249507 1.0246847.60243553 1.3550566 1.10152069a.74106185.74106185 0 0 0 .0014323.00143231l.0028654.00429695c3.4510315 5.21406684 4.4268392 10.49765778 3.9204971 15.92406588-2.1630539 1.3427459-4.3593972 2.5055804-6.640638 3.2931036-.320994.1107121-.6556717.0023468-.8637409-.3079676l-1.1487901-1.7102942c.4312435-.1989312.8559993-.4097902 1.2676795-.6445828.2379426-.124343.3889369-.3687512.393649-.6371831.004712-.2684318-.1376113-.5179889-.3710432-.6506064-.2334319-.1326175-.5206674-.1271017-.7488357.01438-1.2721385.7255354-2.648762 1.2596796-4.0966836 1.5842417-1.0245152.1839421-2.0869021.3003167-3.2028611.3237237-1.0732638-.0225812-2.1030375-.13078-3.0968632-.3022376-1.4812279-.3220721-2.887941-.8648814-4.1869253-1.6057278-.10610588-.0627298-.22630973-.0977072-.34950687-.101701-.33875888-.0108594-.64084152.211805-.73071178.5386059-.08987025.3268009.05587965.6726192.3525564.8365046.40651272.2318458.82632331.4390981 1.25192325.6359889l-1.11154757 1.7031312c-.20649979.316315-.54788655.429737-.8709033.3179945-2.27534475-.7867348-4.4671138-1.9462602-6.62488111-3.2859413-.50673935-5.428254.47037021-10.71251309 3.92336198-15.92836281.33096034-.4999733.79628929-.88000396 1.35219181-1.102953 1.56015926-.6253621 3.07152373-1.1248309 4.48773059-1.40232621.0813405-.01591843.1621435-.01906079.2406443-.0085944Zm10.228816 7.76364418c-1.3993124 0-2.5511159 1.49790824-2.5511159 3.31745434 0 1.8195462 1.1518042 3.3160213 2.5511159 3.3160213 1.3993132 0 2.5496844-1.4964751 2.5496844-3.3160213 0-1.8195461-1.150372-3.31745434-2.5496844-3.31745434Zm-9.5298015.05872932c-1.4125135 0-2.57403518 1.48885442-2.57403518 3.29739972s1.16152168 3.2959682 2.57403518 3.2959682c1.4125135 0 2.5754675-1.4874229 2.5754675-3.2959682 0-1.8085453-1.162954-3.29739972-2.5754675-3.29739972Z"/>
</svg>
