<svg xmlns="http://www.w3.org/2000/svg" width="34" height="34" viewBox="0 0 34 34">
  <g fill="#444B54">
    <path d="M9.44444444 14.3333333h6.47619046c3.1301588 0 5.6666667-2.5365079 5.6666667-5.66666663S19.0507937 3 15.9206349 3c-1.3761905 0-2.6984127.48571429-3.7238095 1.4031746-.3238095.2968254-.3777778.80952381-.0809524 1.13333334.2968254.32380952.8095238.37777777 1.1333333.08095238.7285715-.64761905 1.6730159-.9984127 2.6714286-.9984127 2.2396826 0 4.0476191 1.80793651 4.0476191 4.04761905 0 2.23968254-1.8079365 4.04761904-4.0476191 4.04761904H9.44444444c-.45873015 0-.80952381.35079369-.80952381.80952379 0 .4587302.35079366.8095238.80952381.8095238Zm-1.61904761 4.8571429H.80952381C.35079365 19.1904762 0 19.5412698 0 20c0 .4587302.35079365.8095238.80952381.8095238h7.01587302c.45873015 0 .8095238-.3507936.8095238-.8095238 0-.4587302-.35079365-.8095238-.8095238-.8095238Zm13.49206347 0h-7.015873c-.4587302 0-.8095238.3507936-.8095238.8095238 0 .4587302.3507936.8095238.8095238.8095238h7.015873c2.2396826 0 4.0476191 1.8079365 4.0476191 4.0476191 0 2.2396825-1.8079365 4.047619-4.0476191 4.047619-.9444444 0-1.8619047-.3238095-2.5904762-.9174603-.3507936-.2968254-.863492-.2428572-1.1333333.1079365-.2698413.3507936-.2428571.8634921.1079365 1.1333333 1.0253968.836508 2.2936508 1.2952381 3.615873 1.2952381 3.1301587 0 5.6666667-2.5365079 5.6666667-5.6666666 0-3.1301588-2.536508-5.6666667-5.6666667-5.6666667Z"/>
    <path d="M28.3333333 6.23809524c-.4587301 0-.8095238.35079365-.8095238.80952381 0 .45873016.3507937.80952381.8095238.80952381 2.2396826 0 4.0476191 1.80793651 4.0476191 4.04761904 0 2.2396825-1.8079365 4.0476191-4.0476191 4.0476191H3.50793651c-.45873016 0-.80952381.3507936-.80952381.8095238 0 .4587301.35079365.8095238.80952381.8095238H28.3333333C31.4634921 17.5714286 34 15.0349206 34 11.9047619c0-3.13015873-2.5365079-5.66666666-5.6666667-5.66666666ZM6.20634921 12.71428571c-.44708766 0-.80952381.36243619-.80952381.80952379 0 .4470877.36243615.8095238.80952381.8095238.44708765 0 .80952381-.3624361.80952381-.8095238 0-.4470876-.36243616-.80952379-.80952381-.80952379Z"/>
  </g>
</svg>
