<svg xmlns="http://www.w3.org/2000/svg" width="34" height="34" viewBox="0 0 34 34">
  <g fill="none" fill-rule="evenodd">
    <g fill-rule="nonzero">
      <path fill="#FFF" d="M23.5301587 14.9902634c-2.1857143.4857143-4.3444444-.8904762-4.8301587-3.0761905l-1.4571429-6.58412698 7.9063492-1.75396826 1.4571429 6.61111114c.4857143 2.1587301-.8904762 4.3174603-3.0761905 4.8031746Z"/>
      <path fill="#FFF" d="M10.9825397 14.9902634c2.1857143.4857143 4.3444444-.8904762 4.8301587-3.0761905l1.4571429-6.58412698-7.90634924-1.75396826-1.45714285 6.61111114c-.48571429 2.1587301.89047619 4.3174603 3.07619049 4.8031746Z"/>
      <path fill="#ECC44C" d="M23.5301587 14.9902634c-2.1857143.4857143-4.3444444-.8904762-4.8301587-3.0761905l-.4587302-1.7269841h8.3650794c.4857143 2.1587301-.8904762 4.3174603-3.0761905 4.8031746Zm-12.547619 0c2.1857143.4857143 4.3444444-.8904762 4.8301587-3.0761905l.4587302-1.7539683H7.90634921c-.48571429 2.1857143.89047619 4.3444445 3.07619049 4.8301588Z"/>
      <path fill="#444B54" d="M31.5714286 32.0442316h-3.4539683L24.4746032 15.55693c.9174603-.3777777 1.7269841-1.0253968 2.2666666-1.8888888.7015873-1.1063493.9174604-2.4015873.6476191-3.66984131L25.931746 3.4140729c-.1079365-.43174603-.5396825-.7015873-.9714285-.62063492l-7.6904762 1.7-7.71746035-1.7c-.43174603-.10793651-.86349206.18888889-.97142857.62063492L7.12380952 9.99819989c-.51269841 2.34761901.75555556 4.66825401 2.91428568 5.53174601L6.3952381 32.0442316H2.94126984c-.45873016 0-.80952381.3507937-.80952381.8095238 0 .4587302.35079365.8095239.80952381.8095239h8.09523806c.4587302 0 .8095238-.3507937.8095238-.8095239 0-.4587301-.3507936-.8095238-.8095238-.8095238H8.04126984l3.56190476-16.163492c.0809524 0 .1619048.0269841.2428571.0269841.9174604 0 1.8079366-.2698413 2.5904762-.7555556 1.1063492-.7015873 1.8619048-1.7809523 2.1317461-3.0492063l.7015873-2.96825398.647619 2.94126988c.5126984 2.2666666 2.5095238 3.8047619 4.7492064 3.8047619h.2428571l3.5619048 16.163492h-2.9952381c-.4587302 0-.8095238.3507937-.8095238.8095238 0 .4587302.3507936.8095239.8095238.8095239h8.0952381c.4587301 0 .8095238-.3507937.8095238-.8095239 0-.4587301-.3507937-.8095238-.8095238-.8095238ZM15.0301587 11.7521681c-.1888889.836508-.7015873 1.5650794-1.4301587 2.0238096-.7285714.4587301-1.5920635.6206349-2.4285714.431746-1.75396828-.3777778-2.86031749-2.1047619-2.45555558-3.8587302l1.26825396-5.80158726 6.31428572 1.4031746-1.268254 5.80158726Zm4.452381 0-1.268254-5.80158726 6.3142857-1.4031746 1.268254 5.80158726c.1888889.836508.0269841 1.7-.431746 2.4285715-.4587302.7285714-1.1873016 1.2412698-2.0238096 1.4301587-1.7269841.3777778-3.4539682-.7285714-3.8587301-2.4555556Z"/>
      <path fill="#C7C3F4" d="M4.12857143 15.3140729c.26984127 0 .53968254.1349206.7015873.4047619.24285714.3777778.10793651.8904762-.26984127 1.1063492l-2.02380952 1.268254c-.37777778.2428571-.89047619.1079365-1.10634921-.2698413-.24285714-.3777778-.10793651-.8904762.26984127-1.1063492l2.02380952-1.268254c.10793651-.1079365.26984127-.1349206.40476191-.1349206ZM2.6984127 8.29819989c.45873016 0 .80952381.35079365.80952381.80952381 0 .45873015-.35079365.80952381-.80952381.80952381H.80952381C.35079365 9.91724751 0 9.56645385 0 9.1077237c0-.45873016.35079365-.80952381.80952381-.80952381H2.6984127Zm1.43015873-5.3968254c.26984127 0 .53968254-.13492064.7015873-.40476191.24285714-.37777777.10793651-.89047619-.26984127-1.1063492L2.53650794.12200941c-.40476191-.21587302-.91746032-.1079365-1.13333334.2968254-.24285714.37777777-.1079365.86349206.26984127 1.1063492L3.6968254 2.79343798c.13492063.08095238.29682539.10793651.43174603.10793651Z"/>
      <path fill="#C7C3F4" d="M29.87159671 15.3140729c-.26984127 0-.53968254.1349206-.7015873.4047619-.24285714.3777778-.1079365.8904762.26984127 1.1063492l2.02380952 1.268254c.37777778.2428571.89047619.1079365 1.10634921-.2698413.24285714-.3777778.10793651-.8904762-.26984127-1.1063492l-2.02380952-1.268254c-.10793651-.1079365-.26984127-.1349206-.4047619-.1349206Zm1.43015873-7.01587301c-.45873016 0-.80952381.35079365-.80952381.80952381 0 .45873015.35079365.80952381.80952381.80952381h1.88888889c.45873016 0 .80952381-.35079366.80952381-.80952381 0-.45873016-.35079365-.80952381-.80952381-.80952381h-1.88888889Zm-1.43015873-5.3968254c-.26984127 0-.53968254-.13492064-.7015873-.40476191-.24285714-.37777777-.1079365-.89047619.26984127-1.1063492L31.4636602.12200941c.37777778-.24285714.89047619-.1079365 1.10634921.26984127.24285714.37777778.10793651.89047619-.26984127 1.10634921l-2.02380952 1.26825396c-.10793651.10793651-.26984127.13492064-.4047619.13492064Z"/>
    </g>
    <path stroke="#F37778" stroke-linecap="round" stroke-width="3" d="m3.5 30.5 27-27"/>
  </g>
</svg>
