<svg xmlns="http://www.w3.org/2000/svg" width="34" height="34" viewBox="0 0 34 34">
  <g fill="none">
    <ellipse cx="17.013" cy="17" fill="#FFF" rx="16.178" ry="16.19"/>
    <path fill="#444B54" d="M33.7303727 14.0047619c-.2157018-1.1873016-1.1593973-2.0507936-2.4266455-2.2396825-1.2942109-.1888889-2.480571.431746-3.0467883 1.5380952-.4314036.8904762-.8088818 1.8349206-1.0785091 2.8063492-.29659.9984127-.4853291 2.0238095-.59318 3.0222222l-1.6716891-.4047619c-5.1768438-1.2142857-10.6502776-1.2142857-15.85408409 0l-1.64472641.4317461c-.10785091-1.0253969-.29659001-2.0238096-.59318002-3.0222223-.26962728-.9714285-.64710547-1.915873-1.07850912-2.8063492-.53925456-1.1333333-1.72561459-1.7269841-3.04678826-1.5380952-1.26724822.1888889-2.2109437 1.0523809-2.42664552 2.2396825C.10785091 15.0031746 0 16.0015873 0 17c0 4.3714286 1.64472641 8.3380952 4.36796193 11.3603175.05392546.0539682.10785092.1349206.16177637.1619047C7.65741475 31.8952381 12.0793021 34 17.0134814 34c4.9341792 0 9.3560666-2.1047619 12.4567803-5.4777778.0539255-.0539682.1078509-.1079365.1617764-.1619047C32.3552736 25.3380952 34 21.3714286 34 17c0-.9984127-.0808882-1.9968254-.2696273-2.9952381ZM1.64472641 17c0-.9174603.08088818-1.8079365.24266455-2.6984127.10785091-.5936508.62014274-.8634921 1.05154639-.9174603.05392546 0 .13481364-.0269841.21570183-.0269841.43140364 0 .91673275.1619047 1.1593973.6746031.40444092.8095238.72799365 1.6730159.99762093 2.5634921.43140365 1.4571429.62014275 2.9142857.62014275 4.3984127-.05392546 1.8619048-.40444092 3.6698413-1.10547185 5.3698413C2.83108644 23.7730159 1.64472641 20.5349206 1.64472641 17Zm27.55590799 9.3634921c-1.2402855-3.1031746-1.4020618-6.4761905-.4314036-9.768254.2426645-.8634921.59318-1.7269841.9976209-2.5634921.2426646-.4857143.7279937-.6746031 1.1593973-.6746031.0808882 0 .1348136 0 .2157018.0269841.4314037.0539682.9436955.3238095 1.0515464.9174603.1617764.8904762.2426646 1.7809524.2426646 2.6984127-.0539255 3.5349206-1.2402855 6.7730159-3.2355274 9.3634921Z"/>
    <path fill="#FFF" d="M9.73354481 24.6904762c-.40444092 0-.72799366-.2968254-.80888184-.7015873-.05392546-.431746.24266455-.8634921.6740682-.9174603 4.90721653-.7285715 9.89532113-.7285715 14.80253763 0 .4314037.0539682.7549564.4857143.6740682.9174603-.0539254.431746-.4853291.7555555-.9167327.6746032-4.7454401-.7015873-9.5717685-.7015873-14.31720858 0-.02696273.0269841-.08088819.0269841-.10785091.0269841Zm7.27993659 4.3174603c-2.7501983 0-5.5003965-.215873-8.22363207-.6746032-.43140365-.0809523-.72799366-.4857143-.6740682-.9444444.08088818-.431746.4853291-.7285714.94369548-.6746032 5.28469469.8904762 10.62331479.8904762 15.90800949 0 .4314037-.0809524.8628073.215873.9436955.6746032.0808882.431746-.2157018.8634921-.6740682.9444444-2.7232355.4317461-5.4734338.6746032-8.223632.6746032Z"/>
    <path fill="#444B54" d="M3.23552736 9.33650794c-.13481364 0-.29659001-.02698413-.43140365-.10793651C2.42664552 8.98571429 2.31879461 8.5 2.53449643 8.12222222 5.66217288 3.02222222 11.0816812 0 17.0134814 0c5.9048374 0 11.2704203 2.9952381 14.3980967 7.98730159.2426646.37777778.1348137.89047619-.2696273 1.1063492-.3774782.24285715-.88977.13492064-1.1054718-.26984127-2.8310865-4.5063492-7.6843775-7.2047619-13.0229976-7.2047619-5.3655829 0-10.2727994 2.72539682-13.10388584 7.31269841-.13481364.24285714-.40444092.40476191-.6740682.40476191ZM9.73354481 13.384127c-.05392546 0-.10785092 0-.1887391-.0269841-.43140365-.1079366-.70103093-.5396826-.62014274-.9714286.13481364-.6476191.83584456-1.8349206 2.53449643-2.0777778 1.8604282-.2698413 2.8310864.8634921 3.1007137 1.5111111.1617764.4047619-.0539254.8904762-.4583664 1.052381-.4044409.1619047-.8628073-.0269842-1.0515464-.4317461-.0539254-.1079365-.3774781-.6746031-1.3481364-.5126984-.9706582.1349207-1.1593973.7825397-1.18636.836508-.0808882.3507936-.4044409.6206349-.78191909.6206349Zm14.55987309-.0269841h-.1078509c-1.4020618-.2158731-2.8041237-.3507937-4.2331483-.4317461-.4583664-.0269841-.7819191-.4047619-.7549564-.863492.0269628-.4587302.404441-.7825397.8628073-.7555556 1.4559873.0809524 2.9119747.2428571 4.367962.4587302.4314036.0539682.7549563.4857143.6740682.9174603-.0808882.4047619-.404441.6746032-.8088819.6746032Z"/>
  </g>
</svg>
