<svg xmlns="http://www.w3.org/2000/svg" width="34" height="34" viewBox="0 0 34 34">
  <g fill="none">
    <path fill="#FFF" d="M18.1801495 27.1890484c-1.7165811-3.004017-4.9619923-5.0424571-8.69019198-5.0424571-3.72819966 0-6.97361088 2.0384401-8.69019202 5.0692787l.02682158.8046474H18.153328l.0268215-.831469ZM9.48995752 9.48680544c-2.59230121 0-4.69377655 2.10147534-4.69377655 4.69377655s2.10147534 4.69377651 4.69377655 4.69377651c2.59230118 0 4.69377658-2.1014753 4.69377658-4.69377651s-2.1014754-4.69377655-4.69377658-4.69377655Z"/>
    <path fill="#71C2FF" d="M9.48995752 19.6521844c-3.03083857 0-5.49842396-2.4675854-5.49842396-5.49842399 0-2.86990909 2.25301274-5.28385132 5.12292183-5.47160238.45596687-.02682158.83146899.29503738.85829057.75100425.02682158.45596686-.29503738.83146899-.75100424.85829057-2.03844011.1341079-3.62091334 1.82386746-3.62091334 3.86230756 0 2.14572639 1.74340272 3.88912919 3.88912914 3.88912919.69736108 0 1.39472218-.1877511 1.98479698-.5364317.3755021-.2145726.8851121-.1072863 1.0996848.2682158.2145726.3755022.1072863.8851122-.2682159 1.0996848-.8582905.5096101-1.8238674.7778259-2.81626588.7778259ZM.7997655 27.9936958c-.1341079 0-.2682158-.0268215-.4023237-.1072863-.37550212-.2145726-.50961002-.6973611-.29503738-1.0996848 1.39472217-2.4675854 3.75502124-4.3182744 6.49082243-5.0692787.42914528-.1072863.88511215.134108.99239847.5632532.10728632.4291453-.1341079.8851122-.56325319.9923985-2.3066559.6437179-4.31827442 2.2261912-5.52524554 4.3182744-.1341079.2682158-.4023237.4023237-.69736108.4023237Z"/>
    <path fill="#FFF" d="M15.82 27.1884502c1.71658114-3.004017 4.96199235-5.0424571 8.69019201-5.0424571 3.72819969 0 6.97361089 2.0384401 8.69019199 5.0692787l-.0268216.8046474H15.84682158L15.82 27.1884502Zm8.69019201-17.70224296c-2.5923012 0-4.69377655 2.10147534-4.69377655 4.69377655s2.10147535 4.69377651 4.69377655 4.69377651c2.59230119 0 4.69377659-2.1014753 4.69377659-4.69377651s-2.1014754-4.69377655-4.69377659-4.69377655Z"/>
    <path fill="#71C2FF" d="M24.51019201 19.6515862c-.99239847 0-1.95797536-.2682158-2.78944435-.7778259-.37550212-.2145726-.50961002-.72418263-.2682158-1.09968475.21457264-.37550213.72418267-.50961003 1.09968479-.26821581.59007477.34868055 1.28743586.53643161 1.98479694.53643161 2.14572641 0 3.88912911-1.74340272 3.88912911-3.88912914 0-2.0384401-1.5824732-3.72819966-3.6209133-3.86230756-.45596687-.02682158-.77782583-.40232371-.75100425-.85829057.02682158-.45596687.4023237-.77782583.85829057-.75100425 2.86990908.18775106 5.12292188 2.60169329 5.12292188 5.47160238-.0268216 3.05766015-2.494407 5.49842399-5.52524559 5.49842399Zm8.69019199 8.3415114c-.2682158 0-.5632532-.1341079-.6973611-.4023237-1.1801495-2.0920832-3.191768-3.6745565-5.5252455-4.3182744-.4291453-.1072863-.6705395-.5632532-.5632532-.9923985.1072863-.4291452.5632532-.6705395.9923985-.5632531 2.7089796.7510042 5.0692787 2.6016932 6.4908224 5.0692786.2145727.3755021.0804648.8851122-.2950374 1.0996848-.1341079.0804648-.2682158.1072863-.4023237.1072863Z"/>
    <g>
      <path fill="#FFF" d="M26.9513781 27.0817621c-1.984797-3.4599838-5.686175-5.7934613-9.9508063-5.7934613-4.26463127 0-7.96600935 2.3334775-9.9508063 5.7934613l.02682158.9119337H26.9245565l.0268216-.9119337ZM17.0005718 6.8046474c-2.96262996 0-5.36431607 2.40168611-5.36431607 5.36431607 0 2.96262995 2.40168611 5.36431603 5.36431607 5.36431603 2.9626299 0 5.3643161-2.40168608 5.3643161-5.36431603 0-2.96262996-2.4016862-5.36431606-5.3643161-5.36431606Z"/>
      <path fill="#444B54" d="M17.0005718 18.3379269c-3.4063407 0-6.16896347-2.76262274-6.16896347-6.16896343C10.83160833 8.76262277 13.5942311 6 17.0005718 6c3.4063407 0 6.1689635 2.76262277 6.1689635 6.16896347 0 3.40634069-2.7626228 6.16896343-6.1689635 6.16896343Zm0-10.72863208c-2.52122855 0-4.55966866 2.0384401-4.55966866 4.55966865 0 2.52122854 2.03844011 4.55966863 4.55966866 4.55966863 2.5212285 0 4.5596686-2.03844009 4.5596686-4.55966863 0-2.52122855-2.0384401-4.55966865-4.5596686-4.55966865ZM7.0497655 27.9936958c-.1341079 0-.2682158-.0268215-.4023237-.1072863-.37550212-.2145726-.50961002-.6973611-.29503738-1.0996848 2.172548-3.8086644 6.2494282-6.195785 10.64816738-6.195785 4.3987392 0 8.4756194 2.3871206 10.6481674 6.195785.2145726.3755021.0804647.8851122-.2950374 1.0996848-.3755021.2145727-.8851122.0804648-1.0996848-.2950374-1.8775106-3.3258759-5.4179592-5.3911376-9.2534452-5.3911376-3.80866441 0-7.34911301 2.0652617-9.25344521 5.3911376-.1341079.2682158-.4023237.4023237-.69736108.4023237Z"/>
    </g>
  </g>
</svg>
