<svg xmlns="http://www.w3.org/2000/svg" width="34" height="34" viewBox="0 0 34 34">
  <g fill="none" transform="translate(0 4)">
    <path fill="#FFF" d="M17.4645558 19.5765827c1.31985 0 3.6632571.1616143 5.4410142 1.2121071 3.7440642 2.2356643 4.6329427 5.0639142 6.4915069 4.9292356 1.9124357-.1346786 2.9629285-2.7743785 3.4747071-5.548757C34.1646982 13.0042686 30.5822483-.05955244 24.2254199.85626182c-1.8046928.24242142-5.171657 3.09760706-7.2726426 3.09760706-2.07405 0-5.4679499-2.82824992-7.27264267-3.09760706C3.35024195-.03261673-.23220795 13.0312043 1.0607063 20.1961041c.51177856 2.7743785 1.56227138 5.4140785 3.47470704 5.548757 1.85856424.1346786 2.74744278-2.6935713 6.49150696-4.9292356 1.7777571-1.0774285 4.1211642-1.2390428 5.4410141-1.2121071h.9966214v-.0269357Z"/>
    <circle cx="9.465" cy="11.469" r="3.771" fill="#E8E8F9"/>
    <path fill="#C7C3F4" d="M21.8550771 15.7786471h-2.154857c-1.4814643 0-2.6935714 1.2121071-2.6935714 2.6935714v1.1043642h.4579071c1.31985 0 3.6632571.1616143 5.4410142 1.2121071 3.7440642 2.2356643 4.6329427 5.0639142 6.4915069 4.9292356 1.9124357-.1346786 2.9629285-2.7743785 3.4747071-5.548757.9158142-4.983107-.5387143-12.79446391-3.6363213-16.80788522h-1.9932429c-1.4814642 0-2.6935713 1.21210711-2.6935713 2.69357135V13.05814c0 1.5084-1.2121071 2.7205071-2.6935714 2.7205071Z"/>
    <path fill="#444B54" d="M9.46464892 16.0480043c-2.53195707 0-4.5790713-2.0471143-4.5790713-4.5790713 0-2.53195712 2.04711423-4.57907135 4.5790713-4.57907135 2.53195708 0 4.57907128 2.04711423 4.57907128 4.57907135 0 2.531957-2.0471142 4.5790713-4.57907128 4.5790713Zm0-7.54199984c-1.64307852 0-2.96292849 1.31984997-2.96292849 2.96292854 0 1.6430785 1.31984997 2.9629284 2.96292849 2.9629284 1.64307848 0 2.96292848-1.3198499 2.96292848-2.9629284 0-1.64307857-1.31985-2.96292854-2.96292848-2.96292854Z"/>
    <path fill="#444B54" d="M29.2623984 26.5529325c-1.2659786 0-2.1279214-.9158142-3.1514785-1.9932428-.8619429-.9158142-1.9663071-2.0471142-3.6363213-3.0706713-1.6430786-.9696857-3.8518071-1.1043643-5.0369785-1.1043643h-.9696857c-1.0504928 0-2.6127642.1077429-4.0134213.6195214-.4309714.1616143-.8888785-.0538714-1.0504928-.4848428s.0538714-.8888786.4848428-1.0504928c1.6430786-.6195214 3.3938999-.7272643 4.6060071-.7272643h.9696856c1.31985 0 3.8787428.1616143 5.8719856 1.31985 1.8854999 1.1312999 3.0437356 2.343407 3.9864856 3.3400284.94275.9966214 1.4545285 1.5084 2.0471142 1.4814643 1.1851714-.0808072 2.1817928-1.8585642 2.7474428-4.8753642 1.1043643-6.0605355-1.2659785-13.92576385-4.0942285-16.86175663-1.1312999-1.18517139-2.3703427-1.69694995-3.6363213-1.50839996-.6464571.08080714-1.7508214.70032855-2.8013142 1.29291425-1.6161428.91581426-3.2322856 1.80469281-4.5790713 1.83162852h-.0269357c-1.3737214 0-2.9898642-.91581426-4.5790713-1.8046928-1.0504928-.5925857-2.1548571-1.21210711-2.80131421-1.29291425-1.26597854-.18855-2.50502136.32322856-3.63632133 1.50839995C3.10782053 6.13566167.76441346 13.9739543 1.86877771 20.0344899c.53871427 3.0167999 1.53533567 4.794557 2.74744278 4.8753641.56564998.0269357 1.10436425-.4848428 2.04711422-1.4814642.35016428-.3501643.72726427-.7811357 1.1851714-1.1851714.32322856-.2962929.83500712-.2962929 1.13129997.0269357.29629285.3232285.29629285.8350071-.02693572 1.1312999-.4040357.4040357-.78113569.7811357-1.13129996 1.1313-1.05049283 1.1043643-1.96630709 2.07405-3.31309277 1.9663071-2.04711423-.1346786-3.50164276-2.2895357-4.2019713-6.1952141-.53871428-2.6935714-.35016428-6.2490856.4309714-9.6968569.86194284-3.69019274 2.28953566-6.73392836 4.06729275-8.56555688C6.31317044.47916183 8.0370561-.19423101 9.84174891.04819042c.94274999.13467856 2.12792139.78113569 3.36696419 1.48146424 1.31985.72726426 2.8013142 1.5892071 3.7709999 1.5892071.94275 0 2.4511499-.83500712 3.7979356-1.5892071C22.0166914.82932611 23.2018628.18286898 24.1446128.04819041c1.8046928-.24242142 3.5285785.43097142 5.0369784 1.99324281 1.7777571 1.83162852 3.2053499 4.87536414 4.0672928 8.56555688.8080714 3.4477713.9696857 6.9763498.4579071 9.7237926-.7003286 3.9056785-2.1817928 6.0605355-4.2019713 6.1952141-.1077429.0269357-.18855.0269357-.2424214.0269357Z"/>
    <path fill="#444B54" d="M28.0502913 10.6608615h-2.6935714V7.96729019c0-.45790713-.3501643-.8080714-.8080714-.8080714s-.8080714.35016427-.8080714.8080714v2.69357131h-2.6935714c-.4579071 0-.8080714.3501643-.8080714.8080715 0 .4579071.3501643.8080714.8080714.8080714h2.6935714v2.6935713c0 .4579071.3501643.8080714.8080714.8080714s.8080714-.3501643.8080714-.8080714v-2.6935713h2.6935714c.4579071 0 .8080714-.3501643.8080714-.8080714 0-.4579072-.3501643-.8080715-.8080714-.8080715Z"/>
  </g>
</svg>
