<svg xmlns="http://www.w3.org/2000/svg" width="34" height="34" viewBox="0 0 34 34">
  <g fill="none" fill-rule="evenodd">
    <g fill-rule="nonzero">
      <path fill="#FBB161" d="M10.06 5.1c-1.11272727 4.54363636-.92727273 9.3036364.61818182 13.7236364 1.20545454 3.4615091 1.66909091 7.1090909 1.39090909 10.7563636L11.76 33.0727273h10.7872727l-.2781818-3.5236364c-.2781818-3.6472727.1854546-7.2945454 1.3909091-10.7563636 1.5142364-4.42 1.7309091-9.18000003.6181818-13.72363639H10.06V5.1"/>
      <path fill="#FFF" d="M11.76 33.0727273h10.7872727L22.3 29.6109091H12.03818182L11.76 33.0727273m13.0436364-22.3163637C24.68 9.82909091 24.5254545 5.99636364 24.2781818 5.1H10.06c-.21636364.89636364-.40181818 4.72909091-.52545455 5.6563636H24.8036364"/>
      <path fill="#E19F57" d="M24.8036364 10.7563636h-3.0402182c.2080182 2.7311273-.0043273 5.4585455-.9164546 8.0675819C19.6418182 22.2854545 19.58 25.9327273 19.8581818 29.58l.0024727.0309091h2.4109091L22.2690909 29.58c-.0525454-.6892727-.0788182-1.3785455-.0782-2.0665818-.0018545-2.9629455.4463273-5.9181637 1.4691091-8.7206909 1.4722-4.0330182 1.1436364-8.0363637 1.1436364-8.0363637Z"/>
      <path fill="#E5E5E5" d="M22.2715636 29.6109091h-2.4109091l.2732364 3.4618182H22.5448l-.2732364-3.4618182M24.2781818 5.1h-3.4618182c.4559091 1.86196364.8030182 3.76009091.9473637 5.6563636h3.0399091c-.119-.89203633-.2664364-4.47161815-.4976364-5.54107269-.0089636-.03832727-.0182364-.07696364-.0278182-.11529091"/>
      <path fill="#454B54" d="M22.5472727 34H11.76c-.24727273 0-.49454545-.0927273-.68-.3090909-.18545455-.1854546-.27818182-.4327273-.24727273-.7109091l.27818182-3.5236364c.27818182-3.4927272-.18545454-6.9854545-1.32909091-10.3545454-1.57636363-4.5745455-1.82363636-9.52000002-.64909091-14.21818184.09272728-.40181818.46363637-.71090909.89636364-.71090909H24.2472727c.4327273 0 .8036364.27818182.8963637.71090909 1.2054545 4.69818182.9890909 9.64363634-.5872728 14.21818184-1.1436363 3.3381818-1.6072727 6.8309091-1.3290909 10.3854545l.2781818 3.5236364c.0309091.2472727-.0618181.5254545-.2472727.7109091C23.0418182 33.9072727 22.7945455 34 22.5472727 34ZM12.78 32.1454545h8.7781818l-.1854545-2.5036363C21.0945455 25.84 21.5581818 22.1 22.7945455 18.5145455c1.390909-4.0181819 1.6381818-8.3145455.7418181-12.48727277H10.77090909c-.89636364 4.14181817-.64909091 8.46909087.74181818 12.48727277C12.74909091 22.1 13.24363636 25.84 12.93454545 29.6418182L12.78 32.1454545Z"/>
      <path fill="#FFF" d="M13.39818182 19.6890909c-.37090909 0-.71090909-.2163636-.83454546-.5872727-1.57636363-4.5745455-1.79272727-9.48909093-.61818181-14.21818184.12363636-.46363636.58727272-.74181818 1.05090909-.64909091.46363636.12363637.74181818.58727273.64909091 1.0509091-1.08181819 4.3890909-.89636364 8.96363635.58727272 13.19818185.15454546.4636363-.09272727.9581818-.52545454 1.1127272-.09272728.0618182-.18545455.0927273-.30909091.0927273Z"/>
      <path fill="#FFF" d="M23.2890909.92727273H9.99818182c-1.14363637 0-2.0709091.92727272-2.0709091 2.07090909 0 1.14363636.92727273 2.07090909 2.0709091 2.07090909H22.1145455c.5872727 0 1.0818181.49454545 1.0818181 1.08181818 0 .61818182.4945455 1.08181818 1.0818182 1.08181818S25.36 6.73818182 25.36 6.15090909V2.99818182c0-1.14363637-.9272727-2.0709091-2.0709091-2.0709091Z"/>
      <path fill="#454B54" d="M24.2781818 8.22181818c-1.1127273 0-2.0090909-.89636363-2.0090909-2.00909091 0-.09272727-.0618182-.15454545-.1545454-.15454545H9.99818182C8.32909091 6.05818182 7 4.69818182 7 3.06S8.32909091 0 9.99818182 0H23.2890909c1.6690909 0 2.9981818 1.36 2.9981818 2.99818182v3.18363636c0 1.14363637-.8963636 2.04-2.0090909 2.04ZM9.99818182 1.85454545C9.38 1.85454545 8.85454545 2.38 8.85454545 2.99818182c0 .61818182.52545455 1.14363636 1.14363637 1.14363636H22.1145455c1.1127272 0 2.0090909.89636364 2.0090909 2.00909091 0 .09272727.0618181.15454546.1545454.15454546s.1545455-.06181819.1545455-.15454546V2.99818182c0-.64909091-.5254546-1.14363637-1.1436364-1.14363637H9.99818182Z"/>
    </g>
    <path stroke="#F37778" stroke-linecap="round" stroke-width="3" d="m3.5 30.5 27-27"/>
  </g>
</svg>
