<svg xmlns="http://www.w3.org/2000/svg" width="34" height="34" viewBox="0 0 34 34">
  <g fill="none" fill-rule="evenodd">
    <g fill-rule="nonzero" transform="translate(3.397)">
      <circle cx="14.301" cy="14.303" r="2.159" fill="#FFF" transform="rotate(-29.547 14.301 14.303)"/>
      <path fill="#FFF" d="M12.1428571 14.3015873H6.23333333c-1.24126984 0-2.18571428-1.1603175-1.88888889-2.3746032.86349207-3.75079362 3.83174604-6.71904759 7.58253966-7.60952378 1.2142857-.2968254 2.3746032.64761905 2.3746032 1.88888889 0 .35079365-2.1587302 8.09523809-2.1587302 8.09523809Zm3.2380953-1.8619048 2.9952381-5.09999996c.6206349-1.07936508 2.1047619-1.2952381 3.0222222-.43174603C24.1777778 9.57936508 25.2301587 13.6 24.1238095 17.2968254c-.3507936 1.1873016-1.7539682 1.7269841-2.8333333 1.1063492-.3238095-.1888889-5.9095238-5.9634921-5.9095238-5.9634921Zm-.0269841 3.7507937 2.9412698 5.1269841c.6206349 1.0793651.0809524 2.4825397-1.1333333 2.8333334C13.4650794 25.2301587 9.44444444 24.0968254 6.8 21.2904762c-.86349206-.9174603-.62063492-2.4015873.48571429-2.9952381.29682539-.1888889 8.06825401-2.1047619 8.06825401-2.1047619Zm7.0428571 14.3015873h-3.6698413c-1.6730158 0-3.1571428-1.1063492-3.615873-2.6984127h-1.6190476c-.4857143 1.5920635-1.9428572 2.6984127-3.61587302 2.6984127H6.20634921c-.75555556 0-1.34920635.5936508-1.34920635 1.3492063 0 .7555556.59365079 1.3492064 1.34920635 1.3492064H22.3968254c.7555556 0 1.3492063-.5936508 1.3492063-1.3492064 0-.7555555-.5936507-1.3492063-1.3492063-1.3492063Z"/>
      <path fill="#71C2FF" d="M12.1428571 15.1111111H6.23333333c-.86349206 0-1.64603174-.3777778-2.18571428-1.0523809-.51269842-.6746032-.7015873-1.5111112-.51269842-2.320635.97142858-4.02063488 4.18253969-7.23174599 8.20317457-8.20317457.8095238-.18888888 1.6730159 0 2.320635.51269842.6746031.53968254 1.0523809 1.32222222 1.0523809 2.18571428 0 .48571429-.1349206.94444445-.3507936 1.37619048l-.0269842.05396825c-.215873.37777778-.7285714.51269842-1.1063492.2968254-.3777778-.21587302-.5126984-.72857143-.2968254-1.10634921L13.3571429 6.8c.1079365-.16190476.1619047-.37777778.1619047-.56666667 0-.35079365-.1619047-.67460317-.431746-.89047619-.2698413-.21587301-.6206349-.29682539-.9444445-.21587301-3.45396821.80952381-6.20634916 3.56190476-7.01587297 6.98888887-.08095238.3238095 0 .6746032.21587301.9444445.21587302.2698412.53968254.431746.89047619.431746h5.90952377c.4587302 0 .8095239.3507936.8095239.8095238 0 .4587302-.3507937.8095238-.8095239.8095238Zm10.1190477 4.3444445c-.4857143 0-.9714286-.1349207-1.4031746-.3777778-.4047619-.2428572-.7555556-.5936508-.9984127-.9984127l-.0269842-.0539683c-.215873-.3777778-.0809523-.8904762.2968254-1.1063492.3777778-.215873.8904762-.0809524 1.1063492.2968254l.0269842.0539683c.1079365.1619047.2428571.3238095.4047619.4047619.2968254.1888889.6746031.215873.9984127.0809524.3238095-.1349207.5666666-.3777778.647619-.7015873 1.0253968-3.3730159.0269841-7.12380957-2.5095238-9.57936513-.2428571-.24285714-.5936508-.35079365-.9174603-.29682539-.3507937.05396825-.6476191.24285714-.8365079.56666666l-2.968254 5.09999996c-.215873.3777778-.7285714.5126985-1.1063492.2968254-.3777778-.215873-.5126984-.7285714-.2968254-1.1063492l2.9952381-5.09999997c.431746-.72857142 1.1603174-1.21428571 1.9968254-1.34920634.8365079-.10793651 1.6730158.13492063 2.2666666.72857142 2.9952381 2.86031746 4.1285715 7.25873019 2.9412699 11.19841269-.2428572.8095238-.836508 1.4301587-1.6190476 1.7539683-.3238096.1349206-.6746032.1888889-.9984127.1888889Zm-7.9063492 5.9095238c-3.0492064 0-6.01746036-1.2412699-8.14920639-3.5079365-.56666667-.620635-.83650794-1.4301588-.70158731-2.2666667.13492064-.8365079.62063493-1.5650794 1.37619048-1.9968254.40476191-.2428571.89047619-.3507937 1.34920635-.3507937h.05396825c.45873016 0 .80952381.3777778.80952381.8095239 0 .4587301-.35079365.8095238-.80952381.8095238h-.05396825c-.18888889 0-.37777778.0539682-.56666667.1349206-.29682539.1619048-.51269841.4857143-.56666666.8365079-.05396826.3507937.05396825.6746032.26984127.9174604 2.4015873 2.5904761 6.15238093 3.615873 9.52539683 2.6444444.3238095-.0809524.5936508-.3238095.7285714-.6476191.1349207-.3238095.1079365-.7015873-.0539682-.9984127L14.652381 16.568254c-.2158731-.3777778-.0809524-.8904762.2968253-1.1063492.3777778-.2158731.8904762-.0809524 1.1063493.2968254l2.9142857 5.1539682c.431746.7285714.4857143 1.6190476.1619047 2.4015873-.3238095.7825397-.9714285 1.3492064-1.7539682 1.5920635-.9984127.3238095-2.0238095.4587302-3.0222222.4587302Z"/>
      <path fill="#71C2FF" d="M14.3015873 17.2698413c-1.0253968 0-2.0507936-.5396826-2.5904762-1.5111111-.8095238-1.4301588-.2968254-3.2380953 1.1063492-4.0476191 1.4301587-.8095238 3.2380953-.2968254 4.0476191 1.1063492.8095238 1.4301587.2968254 3.2380953-1.1063492 4.0476191-.4587302.2698412-.9444445.4047619-1.4571429.4047619Zm0-4.3174603c-.215873 0-.4587302.0539682-.6746032.1619047-.647619.3777778-.863492 1.1873016-.5126984 1.8349206.3777778.6476191 1.1873016.8634921 1.8349206.5126985.6476191-.3777778.8634921-1.1873016.5126985-1.8349207-.2428572-.431746-.7015873-.6746031-1.1603175-.6746031Z"/>
      <path fill="#444B54" d="M22.3968254 29.6825397h-3.6698413c-.9714285 0-1.8619047-.4587302-2.4015873-1.2142857 6.9349207-.9984127 12.2777778-6.9619048 12.2777778-14.1666667C28.6031746 6.42222222 22.1809524 0 14.3015873 0c-2.8603175 0-5.63968254.83650794-7.98730159 2.45555556-.37777777.24285714-.45873015.75555555-.21587301 1.13333333.24285714.37777778.75555555.45873016 1.13333333.21587301 2.07777778-1.43015873 4.53333337-2.18571428 7.06984127-2.18571428 6.9888889 0 12.6825397 5.69365079 12.6825397 12.68253968 0 6.9888889-5.6936508 12.6825397-12.6825397 12.6825397-6.98888889 0-12.68253968-5.6936508-12.68253968-12.6825397 0-2.6444444.80952381-5.18095238 2.34761905-7.33968254.26984127-.37777778.16190476-.86349206-.18888889-1.13333333C3.4 5.55873016 2.91428571 5.66666667 2.64444444 6.01746032.91746032 8.44603175 0 11.3063492 0 14.3015873c0 7.8793651 6.42222222 14.3015873 14.3015873 14.3015873h.2428571c.7285715 1.6460317 2.3476191 2.6984127 4.1825397 2.6984127h3.6698413c.2968254 0 .5396825.2428571.5396825.5396825 0 .2968254-.2428571.5396826-.5396825.5396826H6.20634921c-.2968254 0-.53968254-.2428572-.53968254-.5396826s.24285714-.5396825.53968254-.5396825h4.85714289c.4587301 0 .8095238-.3507936.8095238-.8095238 0-.4587302-.3507937-.8095238-.8095238-.8095238H6.20634921c-1.18730159 0-2.15873016.9714286-2.15873016 2.1587301C4.04761905 33.0285714 5.01904762 34 6.20634921 34H22.3968254c1.1873016 0 2.1587302-.9714286 2.1587302-2.1587302 0-1.1873015-.9714286-2.1587301-2.1587302-2.1587301Z"/>
    </g>
    <path stroke="#F37778" stroke-linecap="round" stroke-width="3" d="m3.5 30.5 27-27"/>
  </g>
</svg>
